<svg xmlns="http://www.w3.org/2000/svg" width="24" height="24" fill="currentColor" viewBox="0 0 24 24">
  <path fill-rule="evenodd" d="M8.843 2.225a.773.773 0 0 0-1.091 0 .768.768 0 0 0 0 1.088l.698.696a6.297 6.297 0 0 0-2.776 5.222v8.205c0 .99.806 1.795 1.8 1.795h.977v2a.77.77 0 0 0 1.543 0v-2h4.012v2a.77.77 0 0 0 1.543 0v-2h.977c.994 0 1.8-.804 1.8-1.795V9.23c0-2.171-1.1-4.087-2.776-5.222l.698-.696a.768.768 0 0 0 0-1.088.773.773 0 0 0-1.09 0L14.1 3.28a6.33 6.33 0 0 0-2.1-.356 6.33 6.33 0 0 0-2.1.356L8.843 2.225Z" clip-rule="evenodd" opacity=".2"/>
  <path fill-rule="evenodd" d="M8.843 2.225a.773.773 0 0 0-1.091 0 .768.768 0 0 0 0 1.088l.698.696a6.297 6.297 0 0 0-2.776 5.222v8.205c0 .99.806 1.795 1.8 1.795h.977v2a.77.77 0 0 0 1.543 0v-2h4.012v2a.77.77 0 0 0 1.543 0v-2h.977c.994 0 1.8-.804 1.8-1.795V9.23c0-2.171-1.1-4.087-2.776-5.222l.698-.696a.768.768 0 0 0 0-1.088.773.773 0 0 0-1.09 0L14.1 3.28a6.33 6.33 0 0 0-2.1-.356 6.33 6.33 0 0 0-2.1.356L8.843 2.225Zm7.683 15.467a.257.257 0 0 0 .257-.256V10H7.217v7.436c0 .141.116.256.257.256h9.052Zm.195-9.23a4.78 4.78 0 0 0-4.721-4 4.78 4.78 0 0 0-4.72 4h9.441Z" clip-rule="evenodd"/>
  <path d="M20.229 8.41a.77.77 0 0 1 .771.77v5.64a.77.77 0 0 1-1.543 0V9.18a.77.77 0 0 1 .772-.77Zm-15.686.77A.77.77 0 0 0 3 9.18v5.64a.77.77 0 0 0 1.543 0V9.18Z"/>
</svg>
