<svg xmlns="http://www.w3.org/2000/svg" width="24" height="24" fill="currentColor" viewBox="0 0 24 24">
  <path d="M12 16.872c1.5 0 2.842-.678 3.736-1.745l1.136-1.588V12A4.872 4.872 0 1 0 12 16.872Z" opacity=".2"/>
  <path fill-rule="evenodd" d="M2 12C2 6.477 6.477 2 12 2s10 4.477 10 10v1.539a3.333 3.333 0 0 1-6.264 1.588A4.872 4.872 0 1 1 16.872 12v1.539a1.794 1.794 0 1 0 3.59 0V12A8.46 8.46 0 0 0 12 3.538 8.461 8.461 0 0 0 3.538 12a8.46 8.46 0 0 0 11.7 7.818 8.44 8.44 0 0 0 1.587-.874.77.77 0 0 1 .879 1.263 9.972 9.972 0 0 1-1.877 1.032A9.974 9.974 0 0 1 12 22C6.477 22 2 17.523 2 12Zm13.333 0a3.333 3.333 0 1 0-6.667 0 3.333 3.333 0 0 0 6.667 0Z" clip-rule="evenodd"/>
</svg>
