<svg xmlns="http://www.w3.org/2000/svg" width="24" height="24" fill="currentColor" viewBox="0 0 24 24">
  <path fill-rule="evenodd" d="M4.929 4.929c3.905-3.906 10.236-3.905 14.142 0 3.905 3.905 3.905 10.236 0 14.142-3.906 3.905-10.237 3.905-14.142 0-3.905-3.906-3.906-10.237 0-14.142Z" clip-rule="evenodd" opacity=".2"/>
  <path d="M15.076 8.154c.046 0 .092.004.136.012l.017.003c.016.003.03.01.046.014a.765.765 0 0 1 .476.377c.012.022.026.044.036.068.007.02.011.04.018.059a.765.765 0 0 1 .04.236v4.615a.77.77 0 0 1-1.538 0V10.78l-4.84 4.84a.769.769 0 1 1-1.088-1.087l4.84-4.84h-2.758a.77.77 0 0 1 0-1.54h4.615Z"/>
  <path fill-rule="evenodd" d="M4.929 4.929c3.905-3.906 10.236-3.905 14.142 0 3.905 3.905 3.905 10.236 0 14.142-3.906 3.905-10.237 3.905-14.142 0-3.905-3.906-3.906-10.237 0-14.142Zm13.054 1.088a8.46 8.46 0 0 0-11.966 0 8.46 8.46 0 0 0 0 11.966 8.46 8.46 0 0 0 11.966 0 8.46 8.46 0 0 0 0-11.966Z" clip-rule="evenodd"/>
</svg>
