<svg xmlns="http://www.w3.org/2000/svg" width="24" height="24" fill="currentColor" viewBox="0 0 24 24">
  <path fill-rule="evenodd" d="M9.77 2.5a2.822 2.822 0 0 0-2.82 2.824v1.284H4.82A2.822 2.822 0 0 0 2 9.418v9.258A2.822 2.822 0 0 0 4.82 21.5h14.36A2.822 2.822 0 0 0 22 18.676V9.418a2.822 2.822 0 0 0-2.82-2.81h-2.13V5.324A2.822 2.822 0 0 0 14.23 2.5H9.77Z" clip-rule="evenodd" opacity=".2"/>
  <path fill-rule="evenodd" d="M9.77 2.5a2.822 2.822 0 0 0-2.82 2.824v1.284H4.82A2.822 2.822 0 0 0 2 9.418v9.258A2.822 2.822 0 0 0 4.82 21.5h14.36A2.822 2.822 0 0 0 22 18.676V9.418a2.822 2.822 0 0 0-2.82-2.81h-2.13V5.324A2.822 2.822 0 0 0 14.23 2.5H9.77ZM3.538 18.676v-7.812L8.86 14.38a2.816 2.816 0 0 0 1.554.467h3.174a2.81 2.81 0 0 0 1.554-.468l5.32-3.515v7.812c0 .71-.573 1.284-1.282 1.284H4.821a1.282 1.282 0 0 1-1.283-1.284Zm.057-9.621 6.112 4.039c.21.138.455.212.706.212h3.174c.251 0 .496-.073.706-.212l6.112-4.039a1.282 1.282 0 0 0-1.226-.906H4.821a1.28 1.28 0 0 0-1.226.906Zm11.917-3.73v1.283H8.488V5.324c0-.71.574-1.283 1.282-1.283h4.46c.708 0 1.282.574 1.282 1.283Z" clip-rule="evenodd"/>
</svg>
