<svg xmlns="http://www.w3.org/2000/svg" width="24" height="24" fill="currentColor" viewBox="0 0 24 24">
  <path fill-rule="evenodd" d="M22 5.846A3.846 3.846 0 0 0 18.154 2H5.846A3.846 3.846 0 0 0 2 5.846v12.308A3.846 3.846 0 0 0 5.846 22h12.308A3.846 3.846 0 0 0 22 18.154V5.846Z" clip-rule="evenodd" opacity=".2"/>
  <path d="M7.866 5.297c.3-.3.788-.3 1.088 0l.005.005c.3.3.3.788 0 1.088l-.005.005c-.3.3-.787.3-1.088 0l-.005-.005a.77.77 0 0 1 0-1.088l.005-.005Zm-2.564 0c.3-.3.788-.3 1.088 0l.005.005c.3.3.3.788 0 1.088l-.005.005c-.3.3-.787.3-1.088 0l-.005-.005a.77.77 0 0 1 0-1.088l.005-.005Zm5.128 0c.3-.3.788-.3 1.088 0l.005.005c.3.3.3.788 0 1.088l-.005.005c-.3.3-.787.3-1.088 0l-.005-.005a.77.77 0 0 1 0-1.088l.005-.005Zm3.756 7.698c.3.3.3.787 0 1.087l-2.051 2.052c-.3.3-.787.3-1.088 0l-1.282-1.281a.77.77 0 0 1 1.087-1.088l.739.737 1.507-1.508c.3-.3.788-.3 1.088 0Z"/>
  <path fill-rule="evenodd" d="M22 5.846A3.846 3.846 0 0 0 18.154 2H5.846A3.846 3.846 0 0 0 2 5.846v12.308A3.846 3.846 0 0 0 5.846 22h12.308A3.846 3.846 0 0 0 22 18.154V5.846ZM5.846 3.538a2.308 2.308 0 0 0-2.308 2.308v2.308h16.924V5.846a2.308 2.308 0 0 0-2.308-2.308H5.846Zm14.616 6.154H3.538v8.462a2.308 2.308 0 0 0 2.308 2.308h12.308a2.308 2.308 0 0 0 2.308-2.308V9.692Z" clip-rule="evenodd"/>
</svg>
