<svg xmlns="http://www.w3.org/2000/svg" width="24" height="24" fill="currentColor" viewBox="0 0 24 24">
  <path fill-rule="evenodd" d="M15.88 2c.425 0 .768.344.768.77v1.173h2.144A2.71 2.71 0 0 1 21.5 6.655v12.633A2.71 2.71 0 0 1 18.792 22H5.208A2.71 2.71 0 0 1 2.5 19.288V6.655a2.71 2.71 0 0 1 2.708-2.712h2.144V2.77a.769.769 0 1 1 1.536 0v1.174h6.224V2.77a.77.77 0 0 1 .768-.769Z" clip-rule="evenodd" opacity=".2"/>
  <path d="M7.247 16.317a1.01 1.01 0 1 1-.169 2.014 1.01 1.01 0 0 1 .17-2.014Zm4.852 0a1.011 1.011 0 1 1-.17 2.015 1.011 1.011 0 0 1 .17-2.015ZM7.247 12.43a1.01 1.01 0 1 1-.168 2.015 1.01 1.01 0 0 1 .168-2.014Zm4.852 0a1.011 1.011 0 1 1-.17 2.016 1.011 1.011 0 0 1 .17-2.015Zm4.851 0a1.01 1.01 0 1 1-.17 2.014 1.01 1.01 0 0 1 .17-2.013Z"/>
  <path fill-rule="evenodd" d="M15.88 2c.425 0 .768.344.768.77v1.173h2.144A2.71 2.71 0 0 1 21.5 6.655v12.633A2.71 2.71 0 0 1 18.792 22H5.208A2.71 2.71 0 0 1 2.5 19.288V6.655a2.71 2.71 0 0 1 2.708-2.712h2.144V2.77a.769.769 0 1 1 1.536 0v1.174h6.224V2.77a.77.77 0 0 1 .768-.769ZM4.036 19.288c0 .648.525 1.173 1.172 1.174h13.584c.647 0 1.172-.526 1.172-1.174V10.34H4.036v8.948ZM5.208 5.482c-.647 0-1.172.525-1.172 1.173v2.147h15.928V6.655c0-.648-.525-1.173-1.172-1.173h-2.144v1.173a.769.769 0 1 1-1.536 0V5.482H8.888v1.173a.769.769 0 1 1-1.536 0V5.482H5.208Z" clip-rule="evenodd"/>
</svg>
