<svg xmlns="http://www.w3.org/2000/svg" width="24" height="24" fill="currentColor" viewBox="0 0 24 24">
  <path fill-rule="evenodd" d="M2 12C2 6.477 6.477 2 12 2s10 4.477 10 10-4.477 10-10 10S2 17.523 2 12Z" clip-rule="evenodd" opacity=".2"/>
  <path d="M16.138 9.665a.77.77 0 0 1-.009 1.088l-4.166 4.103a.77.77 0 0 1-1.08 0l-2.5-2.462a.77.77 0 0 1 1.08-1.096l1.96 1.93 3.627-3.571a.77.77 0 0 1 1.088.008Z"/>
  <path fill-rule="evenodd" d="M2 12C2 6.477 6.477 2 12 2s10 4.477 10 10-4.477 10-10 10S2 17.523 2 12Zm10-8.462a8.462 8.462 0 1 0 0 16.924 8.462 8.462 0 0 0 0-16.924Z" clip-rule="evenodd"/>
</svg>
