<svg xmlns="http://www.w3.org/2000/svg" width="24" height="24" fill="currentColor" viewBox="0 0 24 24">
  <path fill-rule="evenodd" d="M6.197 8.605A6.302 6.302 0 0 1 12 4.75c3.244 0 5.916 2.455 6.268 5.613A4.471 4.471 0 0 1 22 14.777a4.468 4.468 0 0 1-4.462 4.473H7.385C4.41 19.25 2 16.832 2 13.851c0-2.576 1.8-4.704 4.197-5.246Z" clip-rule="evenodd" opacity=".2"/>
  <path d="M15.006 11.146c.3.302.3.79 0 1.091l-3.078 3.085a.768.768 0 0 1-1.088 0l-1.846-1.851a.773.773 0 0 1 0-1.09.768.768 0 0 1 1.088 0l1.302 1.305 2.534-2.54a.768.768 0 0 1 1.088 0Z"/>
  <path fill-rule="evenodd" d="M6.197 8.605A6.302 6.302 0 0 1 12 4.75c3.244 0 5.916 2.455 6.268 5.613A4.471 4.471 0 0 1 22 14.777a4.468 4.468 0 0 1-4.462 4.473H7.385C4.41 19.25 2 16.832 2 13.851c0-2.576 1.8-4.704 4.197-5.246ZM12 6.293a4.768 4.768 0 0 0-4.511 3.242.77.77 0 0 1-.624.515 3.838 3.838 0 0 0-3.327 3.801 3.852 3.852 0 0 0 3.847 3.856h10.153a2.927 2.927 0 0 0 2.924-2.93 2.927 2.927 0 0 0-2.924-2.931.77.77 0 0 1-.769-.771A4.775 4.775 0 0 0 12 6.293Z" clip-rule="evenodd"/>
</svg>
