<svg xmlns="http://www.w3.org/2000/svg" width="24" height="24" fill="currentColor" viewBox="0 0 24 24">
  <path fill-rule="evenodd" d="M18.154 2A3.846 3.846 0 0 1 22 5.846v12.308A3.846 3.846 0 0 1 18.154 22H5.846A3.846 3.846 0 0 1 2 18.154V5.846A3.846 3.846 0 0 1 5.846 2h12.308Z" clip-rule="evenodd" opacity=".2"/>
  <path d="M12.21 8.213a.77.77 0 0 1 1.488.395l-1.908 7.18a.77.77 0 0 1-1.487-.396l1.907-7.18Zm2.737 1.149c.3-.3.787-.3 1.088 0l2.093 2.094c.3.3.3.787 0 1.088l-2.093 2.094a.77.77 0 0 1-1.088-1.088l1.55-1.55-1.55-1.55a.77.77 0 0 1 0-1.088Zm-6.978.002a.77.77 0 0 1 1.087 1.087L7.508 12l1.548 1.549a.77.77 0 1 1-1.087 1.087l-2.093-2.092a.77.77 0 0 1 0-1.088L7.97 9.364Z"/>
  <path fill-rule="evenodd" d="M18.154 2A3.846 3.846 0 0 1 22 5.846v12.308A3.846 3.846 0 0 1 18.154 22H5.846A3.846 3.846 0 0 1 2 18.154V5.846A3.846 3.846 0 0 1 5.846 2h12.308ZM5.846 3.538a2.308 2.308 0 0 0-2.308 2.308v12.308a2.307 2.307 0 0 0 2.308 2.308h12.308a2.307 2.307 0 0 0 2.308-2.308V5.846a2.307 2.307 0 0 0-2.308-2.308H5.846Z" clip-rule="evenodd"/>
</svg>
