<svg xmlns="http://www.w3.org/2000/svg" width="24" height="24" fill="currentColor" viewBox="0 0 24 24">
  <path d="M6.848 2A3.34 3.34 0 0 0 3.5 5.333V19.18A2.827 2.827 0 0 0 6.333 22h10.818a3.341 3.341 0 0 0 3.349-3.333V8.279c0-1.02-.407-1.999-1.132-2.72l-2.443-2.432A3.872 3.872 0 0 0 14.193 2H6.848Z" opacity=".2"/>
  <path d="M13.645 12.305a.773.773 0 0 0-1.487.416l1.014 3.59a.772.772 0 0 0 .744.56h.677c.346 0 .65-.229.744-.56l1.013-3.59a.773.773 0 0 0-1.488-.416l-.608 2.154-.609-2.154Zm-4.35-.561a1.67 1.67 0 0 0-1.674 1.666v1.795c0 .92.75 1.667 1.674 1.667h1.157a.77.77 0 0 0 .773-.77.771.771 0 0 0-.773-.769H9.295a.128.128 0 0 1-.128-.128V13.41c0-.07.057-.128.128-.128h1.157a.771.771 0 0 0 .773-.77.77.77 0 0 0-.773-.768H9.295Z"/>
  <path fill-rule="evenodd" d="M3.5 5.333A3.34 3.34 0 0 1 6.848 2h7.345c1.024 0 2.007.405 2.732 1.127l2.443 2.432a3.838 3.838 0 0 1 1.132 2.72v10.388C20.5 20.507 19 22 17.151 22H6.333A2.827 2.827 0 0 1 3.5 19.18V5.333Zm3.348-1.795a1.8 1.8 0 0 0-1.803 1.795V19.18c0 .707.577 1.282 1.288 1.282h10.818a1.8 1.8 0 0 0 1.803-1.795v-10h-2.833a2.313 2.313 0 0 1-2.318-2.308v-2.82H6.848Zm8.5.308v2.513c0 .425.346.77.773.77h2.525a2.31 2.31 0 0 0-.37-.482l-2.444-2.433a2.314 2.314 0 0 0-.484-.368Z" clip-rule="evenodd"/>
</svg>
