<svg xmlns="http://www.w3.org/2000/svg" width="24" height="24" fill="currentColor" viewBox="0 0 24 24">
  <path d="M6.857 2A3.852 3.852 0 0 0 3 5.846v12.308A3.852 3.852 0 0 0 6.857 22h10.286A3.852 3.852 0 0 0 21 18.154V8.146a3.84 3.84 0 0 0-1.13-2.72l-2.306-2.3A3.863 3.863 0 0 0 14.836 2H6.857Z" opacity=".2"/>
  <path d="M12.771 11.876a.77.77 0 0 0-1.542 0v1.406h-1.41a.77.77 0 1 0 0 1.538h1.41v1.407a.77.77 0 0 0 1.542 0V14.82h1.41a.77.77 0 1 0 0-1.538h-1.41v-1.406Z"/>
  <path fill-rule="evenodd" d="M6.857 2A3.852 3.852 0 0 0 3 5.846v12.308A3.852 3.852 0 0 0 6.857 22h10.286A3.852 3.852 0 0 0 21 18.154V8.146a3.84 3.84 0 0 0-1.13-2.72l-2.306-2.3A3.863 3.863 0 0 0 14.836 2H6.857ZM13.8 3.538H6.857a2.311 2.311 0 0 0-2.314 2.308v12.308a2.31 2.31 0 0 0 2.314 2.308h10.286a2.31 2.31 0 0 0 2.314-2.308V9.179H16.63A2.825 2.825 0 0 1 13.8 6.36V3.54Zm5.601 4.103h-2.772c-.71 0-1.286-.574-1.286-1.282V3.594c.424.095.817.309 1.13.62l2.306 2.3c.313.312.527.704.622 1.127Z" clip-rule="evenodd"/>
</svg>
