<svg xmlns="http://www.w3.org/2000/svg" width="24" height="24" fill="currentColor" viewBox="0 0 24 24">
  <path fill-rule="evenodd" d="M12 4C7.947 4 4.23 6.2 2.536 9.686A5.289 5.289 0 0 0 2 12c0 .8.183 1.59.536 2.314C4.23 17.799 7.946 20 12 20c4.053 0 7.77-2.2 9.464-5.686A5.288 5.288 0 0 0 22 12c0-.8-.183-1.59-.536-2.314C19.77 6.201 16.054 4 12 4Z" clip-rule="evenodd" opacity=".2"/>
  <path fill-rule="evenodd" d="M9.279 9.264a3.829 3.829 0 0 1 5.44 0h.002a3.893 3.893 0 0 1 0 5.477 3.833 3.833 0 0 1-5.442 0 3.894 3.894 0 0 1 0-5.477Zm1.088 1.095a2.298 2.298 0 0 1 3.265 0c.9.906.902 2.378 0 3.287-.9.906-2.363.907-3.266 0-.9-.906-.9-2.378 0-3.287Z" clip-rule="evenodd"/>
  <path fill-rule="evenodd" d="M12 4C7.947 4 4.23 6.2 2.536 9.686A5.289 5.289 0 0 0 2 12c0 .8.183 1.59.536 2.314C4.23 17.799 7.946 20 12 20c4.053 0 7.77-2.2 9.464-5.686A5.288 5.288 0 0 0 22 12c0-.8-.183-1.59-.536-2.314C19.77 6.201 16.054 4 12 4Zm-8.082 6.367C5.33 7.458 8.482 5.548 12 5.548c3.518 0 6.669 1.91 8.082 4.819.251.516.38 1.072.38 1.633a3.73 3.73 0 0 1-.38 1.633c-1.413 2.909-4.564 4.819-8.082 4.819-3.518 0-6.669-1.91-8.082-4.819A3.732 3.732 0 0 1 3.538 12c0-.56.129-1.117.38-1.633Z" clip-rule="evenodd"/>
</svg>
