<svg xmlns="http://www.w3.org/2000/svg" width="24" height="24" fill="currentColor" viewBox="0 0 24 24">
  <path fill-rule="evenodd" d="M12 4C7.947 4 4.23 6.2 2.536 9.686A5.289 5.289 0 0 0 2 12c0 .8.183 1.59.536 2.314C4.23 17.799 7.946 20 12 20c4.053 0 7.77-2.2 9.464-5.686A5.288 5.288 0 0 0 22 12c0-.8-.183-1.59-.536-2.314C19.77 6.201 16.054 4 12 4Z" clip-rule="evenodd" opacity=".2"/>
  <path fill-rule="evenodd" d="M12 4C7.947 4 4.23 6.2 2.536 9.686A5.289 5.289 0 0 0 2 12c0 .8.183 1.59.536 2.314a9.753 9.753 0 0 0 2.7 3.355l-1.01 1.01a.774.774 0 1 0 1.096 1.094l1.217-1.217A10.962 10.962 0 0 0 12 20c4.053 0 7.77-2.2 9.464-5.686A5.288 5.288 0 0 0 22 12c0-.8-.183-1.59-.536-2.314a9.753 9.753 0 0 0-2.7-3.355l1.01-1.01a.774.774 0 1 0-1.096-1.094l-1.217 1.217A10.962 10.962 0 0 0 12 4ZM7.679 17.416A9.446 9.446 0 0 0 12 18.452c3.518 0 6.669-1.91 8.082-4.819.251-.516.38-1.072.38-1.633a3.73 3.73 0 0 0-.38-1.633 8.245 8.245 0 0 0-2.419-2.935l-2.446 2.446-1.13 1.13-3.089 3.089-1.13 1.13-2.19 2.19Zm1.101-3.291-2.443 2.443a8.244 8.244 0 0 1-2.42-2.935A3.732 3.732 0 0 1 3.539 12c0-.56.129-1.117.38-1.633C5.33 7.458 8.482 5.548 12 5.548c1.551 0 3.03.372 4.321 1.036L14.13 8.776a3.83 3.83 0 0 0-4.85.488 3.897 3.897 0 0 0-.499 4.86ZM13 9.906l-3.088 3.088a2.34 2.34 0 0 1 .456-2.635A2.298 2.298 0 0 1 13 9.906Z" clip-rule="evenodd"/>
</svg>
