<svg xmlns="http://www.w3.org/2000/svg" width="24" height="24" fill="currentColor" viewBox="0 0 24 24">
  <path d="M9.69 3.869a2.16 2.16 0 0 1 2.747.275 2.265 2.265 0 0 1 0 3.18l-.426.431h7.835c1.19 0 2.154.975 2.154 2.176a2.165 2.165 0 0 1-2.154 2.176h-2.55a2.195 2.195 0 0 1-1.024 2.527 2.18 2.18 0 0 1-.923 2.797c.122.273.19.575.19.893a2.166 2.166 0 0 1-2.154 2.176H9.383C5.306 20.5 2 17.16 2 13.041a7.479 7.479 0 0 1 3.288-6.206L9.69 3.869Z" opacity=".2"/>
  <path fill-rule="evenodd" d="M9.69 3.869a2.16 2.16 0 0 1 2.747.275 2.265 2.265 0 0 1 0 3.18l-.426.431h7.835c1.19 0 2.154.975 2.154 2.176a2.165 2.165 0 0 1-2.154 2.176h-2.55a2.195 2.195 0 0 1-1.024 2.527 2.18 2.18 0 0 1-.923 2.797c.122.273.19.575.19.893a2.166 2.166 0 0 1-2.154 2.176H9.383C5.306 20.5 2 17.16 2 13.041a7.479 7.479 0 0 1 3.288-6.206L9.69 3.869Zm3.693 13.833h-2.306a.773.773 0 0 1-.77-.777c0-.429.345-.777.77-.777h3.23a.62.62 0 0 0 .616-.622.619.619 0 0 0-.615-.621H12a.773.773 0 0 1-.77-.777c0-.43.345-.778.77-.778h3.23a.62.62 0 0 0 .616-.621.62.62 0 0 0-.615-.622H12a.773.773 0 0 1-.77-.777c0-.43.345-.777.77-.777h7.846a.62.62 0 0 0 .616-.622.62.62 0 0 0-.616-.622h-9.692a.77.77 0 0 1-.71-.48.783.783 0 0 1 .166-.846l1.739-1.757a.7.7 0 0 0 0-.983.634.634 0 0 0-.806-.08l-4.4 2.964a5.92 5.92 0 0 0-2.604 4.913c0 3.261 2.617 5.905 5.845 5.905h4.002c.34 0 .615-.279.615-.622a.625.625 0 0 0-.617-.622Z" clip-rule="evenodd"/>
</svg>
