<svg xmlns="http://www.w3.org/2000/svg" width="24" height="24" fill="currentColor" viewBox="0 0 24 24">
  <path fill-rule="evenodd" d="M8.316 3.292a5.898 5.898 0 0 1 7.368 0l4.103 3.282A5.898 5.898 0 0 1 22 11.18v4.922A5.897 5.897 0 0 1 16.103 22H7.897A5.897 5.897 0 0 1 2 16.102V11.18c0-1.792.815-3.487 2.214-4.606l4.102-3.282Z" clip-rule="evenodd" opacity=".2"/>
  <path d="M14.515 14.83a3.332 3.332 0 0 1 2.805 1.99.77.77 0 0 1-1.41.616 1.793 1.793 0 0 0-1.51-1.072l-.132-.005H9.732c-.712 0-1.357.423-1.642 1.077a.77.77 0 0 1-1.41-.615 3.329 3.329 0 0 1 3.052-2h4.536l.247.008Z"/>
  <path fill-rule="evenodd" d="M12 7.128a3.333 3.333 0 1 1 0 6.667 3.333 3.333 0 0 1 0-6.667Zm0 1.539a1.795 1.795 0 1 0 0 3.59 1.795 1.795 0 0 0 0-3.59Z" clip-rule="evenodd"/>
  <path fill-rule="evenodd" d="M8.316 3.292a5.898 5.898 0 0 1 7.368 0l4.103 3.282A5.898 5.898 0 0 1 22 11.18v4.922A5.897 5.897 0 0 1 16.103 22H7.897A5.897 5.897 0 0 1 2 16.102V11.18c0-1.792.815-3.487 2.214-4.606l4.102-3.282Zm6.407 1.202a4.36 4.36 0 0 0-5.446 0L5.174 7.775a4.36 4.36 0 0 0-1.636 3.405v4.922a4.359 4.359 0 0 0 4.36 4.36h8.205a4.359 4.359 0 0 0 4.358-4.36V11.18a4.36 4.36 0 0 0-1.635-3.405l-4.103-3.281Z" clip-rule="evenodd"/>
</svg>
