<svg xmlns="http://www.w3.org/2000/svg" width="24" height="24" fill="currentColor" viewBox="0 0 24 24">
  <path fill-rule="evenodd" d="M2 12C2 6.477 6.477 2 12 2s10 4.477 10 10-4.477 10-10 10S2 17.523 2 12Z" clip-rule="evenodd" opacity=".2"/>
  <path fill-rule="evenodd" d="M2 12C2 6.477 6.477 2 12 2s10 4.477 10 10-4.477 10-10 10S2 17.523 2 12Zm10-8.462A8.461 8.461 0 0 0 3.538 12 8.46 8.46 0 0 0 12 20.462 8.46 8.46 0 0 0 20.462 12 8.46 8.46 0 0 0 12 3.538Z" clip-rule="evenodd"/>
  <path d="M10.47 11.487a.77.77 0 0 1 .77-.77h1.025a.77.77 0 0 1 .77.77v5.128a.77.77 0 0 1-1.54 0v-4.359h-.256a.77.77 0 0 1-.769-.769Zm.513-3.843a1.026 1.026 0 1 1 2.05-.005 1.026 1.026 0 0 1-2.05.005Z"/>
</svg>
