<svg xmlns="http://www.w3.org/2000/svg" width="24" height="24" fill="currentColor" viewBox="0 0 24 24">
  <path fill-rule="evenodd" d="M12 2C6.466 2 2 6.466 2 12a9.985 9.985 0 0 0 10.083 10A9.984 9.984 0 0 0 22 12c0-5.534-4.466-10-10-10Z" clip-rule="evenodd" opacity=".2"/>
  <path fill-rule="evenodd" d="M12 2C6.466 2 2 6.466 2 12a9.985 9.985 0 0 0 10.083 10A9.984 9.984 0 0 0 22 12c0-5.534-4.466-10-10-10ZM9.134 4.033a8.446 8.446 0 0 0-5.56 7.198h3.572c.113-2.497.776-4.97 1.988-7.198Zm5.733 0a8.446 8.446 0 0 1 5.56 7.198h-3.572a16.635 16.635 0 0 0-1.988-7.197Zm5.56 8.736h-3.572a16.637 16.637 0 0 1-1.988 7.197 8.447 8.447 0 0 0 5.56-7.197ZM13.22 4.252a15.044 15.044 0 0 1 2.095 6.979H8.686a15.175 15.175 0 0 1 1.4-5.67c.208-.447.44-.884.695-1.31.569-.95 1.869-.95 2.44.001ZM9.134 19.966a16.636 16.636 0 0 1-1.988-7.197H3.573a8.446 8.446 0 0 0 5.56 7.197Zm3.095-7.197h3.086a15.167 15.167 0 0 1-1.4 5.671c-.208.446-.44.884-.695 1.31a1.418 1.418 0 0 1-1.17.711h-.1a1.418 1.418 0 0 1-1.169-.712 15.044 15.044 0 0 1-2.095-6.98h3.543Z" clip-rule="evenodd"/>
</svg>
