<svg xmlns="http://www.w3.org/2000/svg" width="24" height="24" fill="currentColor" viewBox="0 0 24 24">
  <path fill-rule="evenodd" d="M16.148 2C17.724 2 19 3.262 19 4.82v14.36c0 1.558-1.276 2.82-2.852 2.82H7.852C6.276 22 5 20.738 5 19.18V4.82C5 3.263 6.276 2 7.852 2h8.296Z" clip-rule="evenodd" opacity=".2"/>
  <path fill-rule="evenodd" d="M16.148 2C17.724 2 19 3.262 19 4.82v14.36c0 1.558-1.276 2.82-2.852 2.82H7.852C6.276 22 5 20.738 5 19.18V4.82C5 3.263 6.276 2 7.852 2h8.296ZM7.852 3.538c-.717 0-1.296.574-1.296 1.283V19.18c0 .708.58 1.282 1.296 1.282h8.296c.716 0 1.296-.574 1.296-1.282V4.82c0-.708-.58-1.282-1.296-1.282h-.778v1.077c0 .627-.453 1.385-1.296 1.385H9.926C9.083 6 8.63 5.242 8.63 4.615V3.538h-.778Zm2.333.924h3.63v-.924h-3.63v.924Z" clip-rule="evenodd"/>
</svg>
