<svg xmlns="http://www.w3.org/2000/svg" width="24" height="24" fill="currentColor" viewBox="0 0 24 24">
  <path fill-rule="evenodd" d="M2.513 3.771A.77.77 0 0 1 3.282 3h7.18a.77.77 0 0 1 0 1.543h-.257V14.57a3.338 3.338 0 0 1-3.333 3.343 3.338 3.338 0 0 1-3.334-3.343V4.543h-.256a.77.77 0 0 1-.77-.772Zm11.282 10.8a3.338 3.338 0 0 0 3.333 3.343 3.338 3.338 0 0 0 3.334-3.343V4.543h.256a.77.77 0 0 0 0-1.543h-7.18a.77.77 0 0 0 0 1.543h.257V14.57Z" clip-rule="evenodd" opacity=".2"/>
  <path fill-rule="evenodd" d="M2.513 3.771A.77.77 0 0 1 3.282 3h7.18a.77.77 0 0 1 0 1.543h-.257V14.57a3.338 3.338 0 0 1-3.333 3.343 3.338 3.338 0 0 1-3.334-3.343V4.543h-.256a.77.77 0 0 1-.77-.772Zm6.154.772V9.17h-3.59V4.543h3.59Zm0 6.171h-3.59v3.857c0 .995.804 1.8 1.795 1.8.991 0 1.795-.805 1.795-1.8v-3.857Zm5.128 3.857a3.338 3.338 0 0 0 3.333 3.343 3.338 3.338 0 0 0 3.334-3.343V4.543h.256a.77.77 0 0 0 0-1.543h-7.18a.77.77 0 0 0 0 1.543h.257V14.57Zm1.538-3.857v3.857c0 .995.804 1.8 1.795 1.8.991 0 1.795-.805 1.795-1.8v-3.857h-3.59Zm3.59-1.543h-3.59V4.543h3.59V9.17Z" clip-rule="evenodd"/>
  <path d="M2.77 19.457a.77.77 0 0 0 0 1.543h18.46a.77.77 0 0 0 0-1.543H2.77Z"/>
</svg>
