<svg xmlns="http://www.w3.org/2000/svg" width="24" height="24" fill="currentColor" viewBox="0 0 24 24">
  <path fill-rule="evenodd" d="M18.154 2a2.82 2.82 0 0 1 2.82 2.82V12a2.81 2.81 0 0 1-.816 1.982c.398.349.7.81.853 1.345l.88 3.078A2.82 2.82 0 0 1 19.178 22H4.821a2.82 2.82 0 0 1-2.71-3.595l.878-3.077.074-.222a2.81 2.81 0 0 1 .779-1.123A2.81 2.81 0 0 1 3.026 12V4.82A2.82 2.82 0 0 1 5.846 2h12.308Z" clip-rule="evenodd" opacity=".2"/>
  <path d="M14.051 17.385a.77.77 0 0 1 0 1.538H9.95a.77.77 0 0 1 0-1.538h4.102Z"/>
  <path fill-rule="evenodd" d="M18.154 2a2.82 2.82 0 0 1 2.82 2.82V12a2.81 2.81 0 0 1-.816 1.982c.398.349.7.81.853 1.345l.88 3.078A2.82 2.82 0 0 1 19.178 22H4.821a2.82 2.82 0 0 1-2.71-3.595l.878-3.077.074-.222a2.81 2.81 0 0 1 .779-1.123A2.81 2.81 0 0 1 3.026 12V4.82A2.82 2.82 0 0 1 5.846 2h12.308ZM5.7 14.82c-.573 0-1.076.38-1.233.93l-.879 3.078a1.281 1.281 0 0 0 1.232 1.634h14.357c.852 0 1.467-.816 1.233-1.634l-.879-3.077a1.282 1.282 0 0 0-1.232-.93H5.7Zm.145-11.282c-.708 0-1.282.574-1.282 1.283V12c0 .709.574 1.282 1.282 1.282h12.308c.708 0 1.282-.573 1.282-1.282V4.82c0-.708-.574-1.282-1.282-1.282H5.846Z" clip-rule="evenodd"/>
</svg>
