<svg xmlns="http://www.w3.org/2000/svg" width="24" height="24" fill="currentColor" viewBox="0 0 24 24">
  <path fill-rule="evenodd" d="M5.846 2c.991 0 1.795.804 1.795 1.795v2.051c0 .991-.804 1.795-1.795 1.795H3.795A1.795 1.795 0 0 1 2 5.846V3.795C2 2.804 2.804 2 3.795 2h2.051Zm0 7.18c.991 0 1.795.803 1.795 1.794v2.052c0 .99-.804 1.794-1.795 1.794H3.795A1.795 1.795 0 0 1 2 13.026v-2.052c0-.99.804-1.795 1.795-1.795h2.051Zm0 7.179c.991 0 1.795.804 1.795 1.795v2.051c0 .991-.804 1.795-1.795 1.795H3.795A1.795 1.795 0 0 1 2 20.205v-2.051c0-.991.804-1.795 1.795-1.795h2.051ZM20.206 2C21.195 2 22 2.804 22 3.795v2.051c0 .991-.804 1.795-1.795 1.795h-9.23a1.795 1.795 0 0 1-1.796-1.795V3.795A1.796 1.796 0 0 1 10.974 2h9.231Zm0 7.18c.99 0 1.794.803 1.794 1.794v2.052c0 .99-.804 1.794-1.795 1.794h-9.23a1.795 1.795 0 0 1-1.796-1.794v-2.052c0-.99.804-1.795 1.795-1.795h9.231Zm0 7.179c.99 0 1.794.804 1.794 1.795v2.051c0 .991-.804 1.795-1.795 1.795h-9.23a1.795 1.795 0 0 1-1.796-1.795v-2.051c0-.991.804-1.795 1.795-1.795h9.231Z" clip-rule="evenodd" opacity=".2"/>
  <path fill-rule="evenodd" d="M5.846 16.359c.991 0 1.795.804 1.795 1.795v2.051c0 .991-.804 1.795-1.795 1.795H3.795A1.795 1.795 0 0 1 2 20.205v-2.051c0-.991.804-1.795 1.795-1.795h2.051Zm-2.051 1.538a.257.257 0 0 0-.257.257v2.051c0 .141.116.257.257.257h2.051a.257.257 0 0 0 .257-.257v-2.051a.257.257 0 0 0-.257-.257H3.795Zm16.41-1.538c.991 0 1.795.804 1.795 1.795v2.051c0 .991-.804 1.795-1.795 1.795h-9.23a1.795 1.795 0 0 1-1.796-1.795v-2.051c0-.991.804-1.795 1.795-1.795h9.231Zm-9.23 1.538a.257.257 0 0 0-.257.257v2.051c0 .141.115.257.256.257h9.231a.257.257 0 0 0 .257-.257v-2.051a.257.257 0 0 0-.257-.257h-9.23ZM5.846 9.18c.991 0 1.795.803 1.795 1.794v2.052c0 .99-.804 1.794-1.795 1.794H3.795A1.795 1.795 0 0 1 2 13.026v-2.052c0-.99.804-1.795 1.795-1.795h2.051Zm-2.051 1.538a.257.257 0 0 0-.257.256v2.052c0 .141.116.256.257.256h2.051a.257.257 0 0 0 .257-.256v-2.052a.257.257 0 0 0-.257-.256H3.795Zm16.41-1.538c.991 0 1.795.803 1.795 1.794v2.052c0 .99-.804 1.794-1.795 1.794h-9.23a1.795 1.795 0 0 1-1.796-1.794v-2.052c0-.99.804-1.795 1.795-1.795h9.231Zm-9.23 1.538a.257.257 0 0 0-.257.256v2.052c0 .141.115.256.256.256h9.231a.257.257 0 0 0 .257-.256v-2.052a.257.257 0 0 0-.257-.256h-9.23ZM5.846 2c.991 0 1.795.804 1.795 1.795v2.051c0 .991-.804 1.795-1.795 1.795H3.795A1.795 1.795 0 0 1 2 5.846V3.795C2 2.804 2.804 2 3.795 2h2.051ZM3.795 3.538a.257.257 0 0 0-.257.257v2.051c0 .141.116.257.257.257h2.051a.257.257 0 0 0 .257-.257V3.795a.257.257 0 0 0-.257-.257H3.795ZM20.205 2C21.196 2 22 2.804 22 3.795v2.051c0 .991-.804 1.795-1.795 1.795h-9.23a1.795 1.795 0 0 1-1.796-1.795V3.795A1.796 1.796 0 0 1 10.974 2h9.231Zm-9.23 1.538a.257.257 0 0 0-.257.257v2.051c0 .141.115.257.256.257h9.231a.257.257 0 0 0 .257-.257V3.795a.257.257 0 0 0-.257-.257h-9.23Z" clip-rule="evenodd"/>
</svg>
