<svg xmlns="http://www.w3.org/2000/svg" width="24" height="24" fill="currentColor" viewBox="0 0 24 24">
  <path fill-rule="evenodd" d="M19.071 4.929a10 10 0 0 0-15.64 12.225l-.389 2.33a1.281 1.281 0 0 0 1.475 1.474l2.329-.39A10 10 0 0 0 19.07 4.93Z" clip-rule="evenodd" opacity=".2"/>
  <path fill-rule="evenodd" d="M9.427 6.38a1.744 1.744 0 0 0-1.332.518l-.69.702a3.694 3.694 0 0 0-.493 4.566l.005.007a16.559 16.559 0 0 0 4.91 4.91l.007.005a3.693 3.693 0 0 0 4.566-.492l.702-.69a1.743 1.743 0 0 0-.133-2.606l-1.555-1.243a1.744 1.744 0 0 0-1.986-.134l-.381.23a5.618 5.618 0 0 1-1.2-1.2l.23-.381a1.744 1.744 0 0 0-.134-1.987L10.7 7.031a1.744 1.744 0 0 0-1.273-.652Zm-.235 1.597a.205.205 0 0 1 .306.015l1.244 1.555c.053.066.06.16.015.233l-.48.801a.77.77 0 0 0 .005.8 7.156 7.156 0 0 0 2.338 2.337.77.77 0 0 0 .799.005l.8-.48a.205.205 0 0 1 .235.015l1.554 1.244a.205.205 0 0 1 .015.306l-.703.692a2.155 2.155 0 0 1-2.66.29 15.021 15.021 0 0 1-4.45-4.45 2.155 2.155 0 0 1 .29-2.66l.692-.703Z" clip-rule="evenodd"/>
  <path fill-rule="evenodd" d="M19.071 4.929a10 10 0 0 0-15.64 12.225l-.389 2.33a1.281 1.281 0 0 0 1.475 1.474l2.329-.39A10 10 0 0 0 19.07 4.93ZM6.69 5.413a8.461 8.461 0 1 1 .733 13.702.77.77 0 0 0-.543-.112l-2.26.378.377-2.26a.77.77 0 0 0-.111-.543A8.461 8.461 0 0 1 6.689 5.413Z" clip-rule="evenodd"/>
</svg>
