<svg xmlns="http://www.w3.org/2000/svg" width="24" height="24" fill="currentColor" viewBox="0 0 24 24">
  <path fill-rule="evenodd" d="M7.38 2h9.24A5.38 5.38 0 0 1 22 7.38v9.24A5.38 5.38 0 0 1 16.62 22H7.38A5.38 5.38 0 0 1 2 16.62V7.38A5.38 5.38 0 0 1 7.38 2Z" clip-rule="evenodd" opacity=".2"/>
  <path fill-rule="evenodd" d="M15.155 8.845a4.462 4.462 0 1 0-6.31 6.31 4.462 4.462 0 0 0 6.31-6.31Zm-1.088 1.088a2.923 2.923 0 1 0-4.134 4.134 2.923 2.923 0 0 0 4.134-4.134Z" clip-rule="evenodd"/>
  <path d="M17.076 5.846a1.108 1.108 0 1 0 0 2.216 1.108 1.108 0 0 0 0-2.216Z"/>
  <path fill-rule="evenodd" d="M7.38 2h9.24A5.38 5.38 0 0 1 22 7.38v9.24A5.38 5.38 0 0 1 16.62 22H7.38A5.38 5.38 0 0 1 2 16.62V7.38A5.38 5.38 0 0 1 7.38 2Zm0 1.538a3.841 3.841 0 0 0-3.842 3.843v9.238a3.841 3.841 0 0 0 3.843 3.843h9.238a3.841 3.841 0 0 0 3.843-3.841V7.38a3.841 3.841 0 0 0-3.841-3.843H7.38Z" clip-rule="evenodd"/>
</svg>
