<svg xmlns="http://www.w3.org/2000/svg" width="24" height="24" fill="currentColor" viewBox="0 0 24 24">
  <path d="M14.6 2c-3.303 0-5.98 2.64-5.98 5.897V9.18H6.8c-.718 0-1.3.574-1.3 1.282v3.078a1.29 1.29 0 0 0 1.3 1.281h1.82v5.898c0 .708.582 1.282 1.3 1.282h3.12c.718 0 1.3-.574 1.3-1.282V14.82h2.08c.596 0 1.116-.4 1.26-.97l.78-3.077c.098-.383.01-.79-.236-1.1a1.307 1.307 0 0 0-1.024-.494h-2.86V7.897c0-.141.116-.256.26-.256h2.6c.718 0 1.3-.574 1.3-1.282V3.282C18.5 2.574 17.918 2 17.2 2h-2.6Z" opacity=".2"/>
  <path fill-rule="evenodd" d="M8.62 7.897C8.62 4.64 11.297 2 14.6 2h2.6c.718 0 1.3.574 1.3 1.282v3.077c0 .708-.582 1.282-1.3 1.282h-2.6a.258.258 0 0 0-.26.256V9.18h2.86c.4 0 .778.182 1.024.494.247.31.334.716.237 1.1l-.78 3.076a1.297 1.297 0 0 1-1.261.971h-2.08v5.898c0 .708-.582 1.282-1.3 1.282H9.92c-.718 0-1.3-.574-1.3-1.282V14.82H6.8a1.29 1.29 0 0 1-1.3-1.281V10.46c0-.708.582-1.282 1.3-1.282h1.82V7.897Zm5.98-4.359c-2.441 0-4.42 1.952-4.42 4.36v2.05c0 .426-.35.77-.78.77H7.06v2.564H9.4c.43 0 .78.344.78.77v6.41h2.6v-6.41c0-.426.35-.77.78-.77h2.657l.65-2.564H13.56a.775.775 0 0 1-.78-.77v-2.05c0-.992.815-1.795 1.82-1.795h2.34V3.538H14.6Z" clip-rule="evenodd"/>
</svg>
