<svg xmlns="http://www.w3.org/2000/svg" width="24" height="24" fill="currentColor" viewBox="0 0 24 24">
  <path d="M7.385 2A5.385 5.385 0 0 0 2 7.385v9.234A5.38 5.38 0 0 0 7.38 22h9.24A5.38 5.38 0 0 0 22 16.62V7.38A5.38 5.38 0 0 0 16.62 2H7.384Z" opacity=".2"/>
  <path d="M8.02 10.308a.77.77 0 0 1 .77.769v5.538a.77.77 0 0 1-1.539 0v-5.538a.77.77 0 0 1 .77-.77Zm6 1.538c-.85 0-1.539.689-1.539 1.539v3.23a.77.77 0 0 1-1.538 0v-3.23a3.076 3.076 0 1 1 6.153 0v3.23a.77.77 0 0 1-1.538 0v-3.23c0-.85-.688-1.539-1.538-1.539Z"/>
  <path fill-rule="evenodd" d="M2 7.385A5.385 5.385 0 0 1 7.385 2h9.234A5.38 5.38 0 0 1 22 7.38v9.24A5.38 5.38 0 0 1 16.62 22H7.38A5.38 5.38 0 0 1 2 16.62V7.384Zm5.385-3.847a3.847 3.847 0 0 0-3.847 3.847v9.234a3.842 3.842 0 0 0 3.843 3.843h9.238a3.842 3.842 0 0 0 3.843-3.841V7.38a3.842 3.842 0 0 0-3.843-3.843H7.385Z" clip-rule="evenodd"/>
  <path d="M8.018 6.962a.999.999 0 1 0 .001 2 1 1 0 1 0 0-2Z"/>
</svg>
