<svg xmlns="http://www.w3.org/2000/svg" width="24" height="24" fill="currentColor" viewBox="0 0 24 24">
  <path fill-rule="evenodd" d="M2 6.872A4.872 4.872 0 0 1 6.872 2h10.256A4.872 4.872 0 0 1 22 6.872v10.256A4.872 4.872 0 0 1 17.128 22H6.872A4.872 4.872 0 0 1 2 17.128V6.872Z" clip-rule="evenodd" opacity=".2"/>
  <path d="M13.728 8.147a.77.77 0 0 1 .77-.77h2.813a.77.77 0 0 1 0 1.539h-2.814a.77.77 0 0 1-.769-.77Z"/>
  <path fill-rule="evenodd" d="M8.46 7.386a.783.783 0 0 0-.05-.001H6.23c-.567 0-1.026.459-1.026 1.025v7.019c0 .178.04.376.14.557.088.155.33.468.773.468h2.937a2.869 2.869 0 0 0 1.43-5.355A2.437 2.437 0 0 0 8.46 7.386ZM6.742 8.923v1.795H8.41a.898.898 0 0 0 .898-.897.898.898 0 0 0-.938-.898H6.743Zm0 3.333v2.66h2.311a1.33 1.33 0 1 0 0-2.66H6.742Zm7.631 1.532h3.737a.982.982 0 0 0 .786-.39c.162-.214.214-.457.214-.654a3.205 3.205 0 0 0-3.205-3.206c-2.07 0-3.185 1.744-3.205 3.435a.814.814 0 0 0-.002.047c.003 1.325.685 2.622 2.034 3.183a3.304 3.304 0 0 0 3.598-.705.77.77 0 0 0-1.084-1.092 1.765 1.765 0 0 1-1.923.377 1.713 1.713 0 0 1-.95-.995Zm-.017-1.539h3.14a1.667 1.667 0 0 0-1.591-1.172c-.745 0-1.314.46-1.55 1.172Z" clip-rule="evenodd"/>
  <path fill-rule="evenodd" d="M2 6.872A4.872 4.872 0 0 1 6.872 2h10.256A4.872 4.872 0 0 1 22 6.872v10.256A4.872 4.872 0 0 1 17.128 22H6.872A4.872 4.872 0 0 1 2 17.128V6.872Zm4.872-3.334a3.333 3.333 0 0 0-3.334 3.334v10.256a3.333 3.333 0 0 0 3.334 3.334h10.256a3.333 3.333 0 0 0 3.334-3.334V6.872a3.333 3.333 0 0 0-3.334-3.334H6.872Z" clip-rule="evenodd"/>
</svg>
