<svg xmlns="http://www.w3.org/2000/svg" width="24" height="24" fill="currentColor" viewBox="0 0 24 24">
  <path fill-rule="evenodd" d="M5.06 2.475A.778.778 0 0 1 5.777 2h12.444c.43 0 .778.344.778.77v6.153c0 .425-.348.77-.778.77h-4.344l4.894 4.84c.223.22.29.55.169.838a.778.778 0 0 1-.719.475h-5.444v5.385a.77.77 0 0 1-.48.71.784.784 0 0 1-.848-.166L5.228 15.62A.765.765 0 0 1 5 15.077V8.923c0-.425.348-.77.778-.77h4.344l-4.894-4.84a.763.763 0 0 1-.169-.838Z" clip-rule="evenodd" opacity=".2"/>
  <path fill-rule="evenodd" d="M5.06 2.475A.778.778 0 0 1 5.777 2h12.444c.43 0 .778.344.778.77v6.153c0 .425-.348.77-.778.77h-4.344l4.894 4.84c.223.22.29.55.169.838a.778.778 0 0 1-.719.475h-5.444v5.385a.77.77 0 0 1-.48.71.784.784 0 0 1-.848-.166L5.228 15.62A.765.765 0 0 1 5 15.077V8.923c0-.425.348-.77.778-.77h4.344l-4.894-4.84a.763.763 0 0 1-.169-.838Zm7.262 5.679h5.122V3.538H7.656l4.666 4.616Zm-.644 1.538H6.556v4.616h9.789l-4.667-4.616Zm-.456 6.154H7.656l3.566 3.528v-3.528Z" clip-rule="evenodd"/>
</svg>
