<svg xmlns="http://www.w3.org/2000/svg" width="24" height="24" fill="currentColor" viewBox="0 0 24 24">
  <path d="M7.467 11.363a.705.705 0 0 0 .039.022l.926.528-2.306.333c-1.313.19-1.834 1.79-.886 2.708l2.221 2.15-.524 3.036c-.225 1.297 1.146 2.284 2.317 1.674h.001L12 20.381l2.745 1.433c1.174.613 2.542-.378 2.318-1.674l-.524-3.036 2.22-2.15c.948-.917.428-2.519-.884-2.708l-2.306-.333.926-.528a.73.73 0 0 0 .039-.022l2.04-1.162A2.815 2.815 0 0 0 20 7.754V4.82C20 3.262 18.73 2 17.161 2H6.84A2.829 2.829 0 0 0 4 4.82v2.934c0 1.011.545 1.945 1.427 2.447l2.04 1.162Z" opacity=".2"/>
  <path fill-rule="evenodd" d="M7.467 11.363a.705.705 0 0 0 .039.022l.926.528-2.306.333c-1.313.19-1.834 1.79-.886 2.708l2.221 2.15-.524 3.036c-.225 1.297 1.146 2.284 2.317 1.674h.001L12 20.381l2.745 1.433c1.174.613 2.542-.378 2.318-1.674l-.524-3.036 2.22-2.15c.948-.917.428-2.519-.884-2.708l-2.306-.333.926-.528a.73.73 0 0 0 .039-.022l2.04-1.162A2.815 2.815 0 0 0 20 7.754V4.82C20 3.262 18.73 2 17.161 2H6.84A2.829 2.829 0 0 0 4 4.82v2.934c0 1.011.545 1.945 1.427 2.447l2.04 1.162ZM5.548 4.82c0-.708.578-1.282 1.29-1.282h.259v5.84l-.9-.512a1.28 1.28 0 0 1-.649-1.112V4.82Zm3.097-1.282v6.723l1.024.583.896-1.805c.587-1.181 2.281-1.182 2.867 0l.897 1.806 1.026-.584V3.538h-6.71Zm8.258 0v5.84l.9-.512c.4-.227.649-.652.649-1.112V4.82c0-.708-.578-1.282-1.29-1.282h-.259Zm-6.213 8.729a1.4 1.4 0 0 0 .008-.017l1.256-2.531a.068.068 0 0 1 .011-.017.025.025 0 0 1 .006-.005.056.056 0 0 1 .028-.006c.013 0 .023.004.028.006a.028.028 0 0 1 .006.005.067.067 0 0 1 .01.017l1.553 3.127a.773.773 0 0 0 .583.42l3.472.502a.068.068 0 0 1 .022.007.055.055 0 0 1 .018.027.056.056 0 0 1 .002.028.026.026 0 0 1-.003.008.07.07 0 0 1-.012.015l-2.512 2.431a.766.766 0 0 0-.223.681l.593 3.435a.066.066 0 0 1 0 .024v.003a.057.057 0 0 1-.02.022.056.056 0 0 1-.026.01h-.008a.068.068 0 0 1-.018-.007l-3.105-1.621a.779.779 0 0 0-.72 0l-3.103 1.62a.07.07 0 0 1-.019.008H8.51a.057.057 0 0 1-.027-.01.056.056 0 0 1-.018-.022.025.025 0 0 1-.002-.008V20.4l.594-3.435a.766.766 0 0 0-.223-.68l-2.512-2.432a.067.067 0 0 1-.012-.015.027.027 0 0 1-.003-.008.056.056 0 0 1 .002-.028.055.055 0 0 1 .015-.025.024.024 0 0 1 .006-.004.069.069 0 0 1 .019-.005l3.472-.501a.774.774 0 0 0 .583-.421l.287-.579Z" clip-rule="evenodd"/>
</svg>
