<svg xmlns="http://www.w3.org/2000/svg" width="24" height="24" fill="currentColor" viewBox="0 0 24 24">
  <path d="M17.62 4.328a7.952 7.952 0 0 1 1.371 9.407l2.79 2.856a.77.77 0 0 1-.154 1.197l-2.4 1.44-1.44 2.398a.769.769 0 0 1-1.216.135l-3.722-3.909c-.564.06-1.134.06-1.698 0l-3.722 3.91a.77.77 0 0 1-1.217-.136l-1.44-2.399-2.399-1.44a.77.77 0 0 1-.154-1.196l2.79-2.856A7.949 7.949 0 0 1 17.62 4.328Z" opacity=".2"/>
  <path fill-rule="evenodd" d="M10.872 6.205a1.257 1.257 0 0 1 2.257 0l.742 1.504 1.66.242c1.033.15 1.443 1.419.697 2.146l-1.202 1.17.284 1.654c.176 1.029-.903 1.812-1.826 1.327l-1.483-.78-1.485.781c-.923.485-2.002-.298-1.826-1.327l.283-1.653-1.201-1.17c-.746-.728-.336-1.997.697-2.147l1.661-.243.742-1.504Zm1.494 5.718-.02-.011-.003-.001a.769.769 0 0 0-.75.034l-1.29.678.255-1.493a.77.77 0 0 0-.221-.681L9.252 9.392l1.5-.219a.769.769 0 0 0 .579-.42L12 7.395l.67 1.358a.77.77 0 0 0 .578.42l1.5.218-1.086 1.057a.77.77 0 0 0-.221.68l.256 1.495-1.332-.7Z" clip-rule="evenodd"/>
  <path fill-rule="evenodd" d="M18.991 13.735a7.949 7.949 0 1 0-13.983 0L2.22 16.591a.77.77 0 0 0 .154 1.197l2.4 1.44 1.44 2.398a.77.77 0 0 0 1.216.135l3.722-3.909c.564.06 1.134.06 1.698 0l3.722 3.91a.77.77 0 0 0 1.217-.136l1.44-2.399 2.398-1.44a.77.77 0 0 0 .155-1.196l-2.79-2.856Zm-2.458-8.319a6.41 6.41 0 0 0-9.964 7.941c.038.046.07.096.096.147a6.438 6.438 0 0 0 4.22 2.758.772.772 0 0 1 .212.034 6.45 6.45 0 0 0 1.806 0 .774.774 0 0 1 .213-.034 6.433 6.433 0 0 0 4.22-2.758.762.762 0 0 1 .094-.146 6.413 6.413 0 0 0-.897-7.942Zm1.577 9.618a7.916 7.916 0 0 1-3.508 2.427l2.386 2.507 1.02-1.697a.767.767 0 0 1 .263-.264L20 16.97l-1.891-1.935Zm-8.712 2.428a7.917 7.917 0 0 1-3.508-2.428L4 16.97l1.73 1.038a.768.768 0 0 1 .263.264l1.019 1.697 2.386-2.506Z" clip-rule="evenodd"/>
</svg>
