<svg xmlns="http://www.w3.org/2000/svg" width="24" height="24" fill="currentColor" viewBox="0 0 24 24">
  <path d="M2 5.846A3.846 3.846 0 0 1 5.846 2h12.308A3.846 3.846 0 0 1 22 5.846V12a3.846 3.846 0 0 1-3.846 3.846h-2.885l-1.73 2.308a1.923 1.923 0 0 1-3.078 0l-1.73-2.308H5.846A3.846 3.846 0 0 1 2 12V5.846Z" opacity=".2"/>
  <path d="M14.595 8.698a.77.77 0 0 0-1.088-1.088l-2.02 2.02-.994-.994a.77.77 0 1 0-1.088 1.087l1.538 1.539c.3.3.788.3 1.088 0l2.564-2.564Z"/>
  <path fill-rule="evenodd" d="M2 5.846A3.846 3.846 0 0 1 5.846 2h12.308A3.846 3.846 0 0 1 22 5.846V12a3.846 3.846 0 0 1-3.846 3.846h-2.885l-1.73 2.308a1.923 1.923 0 0 1-3.078 0l-1.73-2.308H5.846A3.846 3.846 0 0 1 2 12V5.846Zm3.846-2.308a2.308 2.308 0 0 0-2.308 2.308V12a2.307 2.307 0 0 0 2.308 2.308h3.27a.77.77 0 0 1 .615.308l1.961 2.615a.385.385 0 0 0 .616 0l1.96-2.616a.769.769 0 0 1 .616-.307h3.27A2.307 2.307 0 0 0 20.462 12V5.846a2.307 2.307 0 0 0-2.308-2.308H5.846Z" clip-rule="evenodd"/>
  <path d="M6.103 21.23a.77.77 0 0 1 .769-.768h10.256a.77.77 0 0 1 0 1.538H6.872a.77.77 0 0 1-.77-.77Z"/>
</svg>
