<svg xmlns="http://www.w3.org/2000/svg" width="24" height="24" fill="currentColor" viewBox="0 0 24 24">
  <path d="m7.75 18.93 2.028-1.845A2.612 2.612 0 0 0 12 18.325h2.472l2.701 2.455c.361.328.88.412 1.326.214.445-.198.732-.64.732-1.128v-1.541h.154A2.619 2.619 0 0 0 22 15.701v-4.627a2.619 2.619 0 0 0-2.615-2.622h-1.077V6.448A3.543 3.543 0 0 0 14.769 2.9H5.54A3.543 3.543 0 0 0 2 6.448v6.478a3.543 3.543 0 0 0 3.538 3.548h.154v1.541a1.229 1.229 0 0 0 2.058.914Z" opacity=".2"/>
  <path fill-rule="evenodd" d="M9.778 17.085 7.75 18.93a1.228 1.228 0 0 1-2.058-.914v-1.541h-.154A3.543 3.543 0 0 1 2 12.926V6.448A3.543 3.543 0 0 1 5.538 2.9h9.231a3.543 3.543 0 0 1 3.539 3.548v2.005h1.077A2.619 2.619 0 0 1 22 11.075v4.627a2.619 2.619 0 0 1-2.615 2.623h-.154v1.54c0 .489-.287.931-.732 1.13a1.228 1.228 0 0 1-1.326-.215l-2.7-2.456H12c-.938 0-1.76-.495-2.222-1.239ZM3.538 6.448c0-1.108.896-2.006 2-2.006h9.231c1.105 0 2 .898 2 2.006v2.005H12a2.619 2.619 0 0 0-2.615 2.622v4.286L7.23 17.319v-1.617a.77.77 0 0 0-.77-.77h-.923c-1.104 0-2-.899-2-2.006V6.448Zm7.385 9.256v-4.629c0-.596.482-1.08 1.077-1.08h7.385c.594 0 1.076.484 1.076 1.08v4.627c0 .597-.482 1.08-1.076 1.08h-.924a.77.77 0 0 0-.769.771v1.617l-2.406-2.188a.768.768 0 0 0-.517-.2H12a1.078 1.078 0 0 1-1.077-1.078Z" clip-rule="evenodd"/>
</svg>
