<svg xmlns="http://www.w3.org/2000/svg" width="24" height="24" fill="currentColor" viewBox="0 0 24 24">
  <path fill-rule="evenodd" d="M10.488 5.181a.765.765 0 0 0-.7-1.209C5.42 4.397 2 8.012 2 12.484 2 17.17 5.842 21 10.543 21c3.535 0 6.622-2.237 7.9-5.317a.765.765 0 0 0-.144-.812.77.77 0 0 0-.8-.211c-2.187.697-4.696.253-6.413-1.459-2.149-2.142-2.334-5.596-.598-8.02Z" clip-rule="evenodd" opacity=".2"/>
  <path d="M14.43 3c.424 0 .768.343.768.767v.202h.203a.768.768 0 1 1 0 1.533h-.203v.202a.768.768 0 0 1-.769.767.768.768 0 0 1-.77-.767v-.202h-.202a.768.768 0 1 1 0-1.533h.203v-.202c0-.424.344-.767.77-.767Zm5.627 3.673a.768.768 0 0 0-.77-.767.768.768 0 0 0-.769.767v1.17h-1.174a.768.768 0 1 0 0 1.534h1.174v1.17a.768.768 0 0 0 1.539 0v-1.17h1.174a.768.768 0 1 0 0-1.534h-1.174v-1.17Z"/>
  <path fill-rule="evenodd" d="M10.488 5.181a.765.765 0 0 0-.7-1.209C5.42 4.397 2 8.012 2 12.484 2 17.17 5.842 21 10.543 21c3.535 0 6.622-2.237 7.9-5.317a.765.765 0 0 0-.144-.812.77.77 0 0 0-.8-.211c-2.187.697-4.696.253-6.413-1.459-2.149-2.142-2.334-5.596-.598-8.02Zm-6.95 7.303c0-3.115 2.025-5.73 4.845-6.659-1.167 2.805-.658 6.194 1.616 8.46 1.72 1.715 4.041 2.4 6.26 2.186-1.28 1.8-3.39 2.995-5.716 2.995-3.851 0-7.005-3.143-7.005-6.982Z" clip-rule="evenodd"/>
</svg>
