<svg xmlns="http://www.w3.org/2000/svg" width="24" height="24" fill="currentColor" viewBox="0 0 24 24">
  <path fill-rule="evenodd" d="M6.359 22A4.359 4.359 0 0 1 2 17.641V4.821A2.82 2.82 0 0 1 4.82 2h3.077a2.82 2.82 0 0 1 2.82 2.82v2.298l2.52-2.518a2.82 2.82 0 0 1 3.989 0l2.175 2.175a2.82 2.82 0 0 1 0 3.988l-2.518 2.52h2.297a2.82 2.82 0 0 1 2.82 2.82v3.076A2.82 2.82 0 0 1 19.18 22H6.359Z" clip-rule="evenodd" opacity=".2"/>
  <path d="M5.077 17.77c0-.635.513-1.151 1.148-1.155h.005a1.154 1.154 0 1 1-1.153 1.155Z"/>
  <path fill-rule="evenodd" d="M6.359 22A4.359 4.359 0 0 1 2 17.641V4.821A2.82 2.82 0 0 1 4.82 2h3.077a2.82 2.82 0 0 1 2.82 2.82v2.298l2.52-2.518a2.82 2.82 0 0 1 3.989 0l2.175 2.175a2.82 2.82 0 0 1 0 3.988l-2.518 2.52h2.297a2.82 2.82 0 0 1 2.82 2.82v3.076A2.82 2.82 0 0 1 19.18 22H6.359ZM3.539 4.82c0-.708.573-1.282 1.282-1.282h3.076c.709 0 1.282.574 1.282 1.283v12.82a2.82 2.82 0 1 1-5.64 0V4.821Zm11.805 10h3.836c.708 0 1.282.574 1.282 1.283v3.076c0 .709-.574 1.283-1.282 1.283H9.703l5.641-5.642Zm-.864-1.31a.149.149 0 0 0 .004-.005l3.83-3.83c.5-.5.5-1.311 0-1.812l-2.176-2.175a1.281 1.281 0 0 0-1.813 0l-3.607 3.605v7.978l3.762-3.762Z" clip-rule="evenodd"/>
</svg>
