<svg xmlns="http://www.w3.org/2000/svg" width="24" height="24" fill="currentColor" viewBox="0 0 24 24">
  <path d="M16.016 2.829a2.827 2.827 0 0 1 4 0l1.154 1.156a2.83 2.83 0 0 1 0 4L10.588 18.572c-.209.21-.447.382-.705.516l-.002.001-2.676 1.379L3.77 22c-1.229-.023-2.212-1.366-1.56-2.632l2.709-5.249v-.001c.134-.257.305-.494.513-.702L16.016 2.83Z" opacity=".2"/>
  <path fill-rule="evenodd" d="M16.016 2.828a2.828 2.828 0 0 1 4 0l1.154 1.157a2.828 2.828 0 0 1 0 3.999L10.588 18.566a2.81 2.81 0 0 1-.705.516l-.002.001-2.676 1.378h11.03a.77.77 0 1 1 0 1.539H3.864a.777.777 0 0 1-.094-.006c-1.229-.022-2.212-1.365-1.56-2.631l2.709-5.247v-.002c.134-.256.305-.494.513-.701L16.016 2.828ZM3.927 20.418l4.603-2.37-2.58-2.579-2.373 4.599a.26.26 0 0 0 .35.35Zm2.911-6.236L17.103 3.915a1.29 1.29 0 0 1 1.824 0l1.155 1.156a1.29 1.29 0 0 1 0 1.824L9.818 17.161l-2.98-2.98Z" clip-rule="evenodd"/>
</svg>
