<svg xmlns="http://www.w3.org/2000/svg" width="24" height="24" fill="currentColor" viewBox="0 0 24 24">
  <path fill-rule="evenodd" d="M2 12C2 6.477 6.477 2 12 2s10 4.477 10 10-4.477 10-10 10S2 17.523 2 12Z" clip-rule="evenodd" opacity=".2"/>
  <path fill-rule="evenodd" d="M6.615 10.039c0-.871.706-1.577 1.577-1.577h1.616c.87 0 1.577.706 1.577 1.577v3.172A2.788 2.788 0 0 1 8.596 16a.77.77 0 1 1 0-1.539 1.25 1.25 0 0 0 1.25-1.23H8.192c-.87 0-1.577-.706-1.577-1.577v-1.615Zm3.231 1.653V10.04a.038.038 0 0 0-.038-.04H8.192a.038.038 0 0 0-.038.039v1.615c0 .021.017.038.038.038h1.654Zm2.308-1.653c0-.871.706-1.577 1.577-1.577h1.615c.871 0 1.577.706 1.577 1.577v3.172A2.788 2.788 0 0 1 14.135 16a.77.77 0 0 1 0-1.539 1.25 1.25 0 0 0 1.25-1.23H13.73a1.577 1.577 0 0 1-1.577-1.577v-1.615Zm3.23 1.653V10.04a.038.038 0 0 0-.038-.039h-1.615a.038.038 0 0 0-.039.039v1.615c0 .021.018.038.039.038h1.654Z" clip-rule="evenodd"/>
  <path fill-rule="evenodd" d="M2 12C2 6.477 6.477 2 12 2s10 4.477 10 10-4.477 10-10 10S2 17.523 2 12Zm10-8.462a8.462 8.462 0 1 0 0 16.924 8.462 8.462 0 0 0 0-16.924Z" clip-rule="evenodd"/>
</svg>
