<svg xmlns="http://www.w3.org/2000/svg" width="24" height="24" fill="currentColor" viewBox="0 0 24 24">
  <path d="M11.143 2A9.143 9.143 0 0 0 2 11.143v.001a9.143 9.143 0 0 0 9.143 9.142 9.105 9.105 0 0 0 5.83-2.1l1.213-1.213A9.143 9.143 0 0 0 11.143 2Z" opacity=".2"/>
  <path fill-rule="evenodd" d="M11.143 2A9.143 9.143 0 0 0 2 11.143v.001a9.143 9.143 0 0 0 9.143 9.142 9.105 9.105 0 0 0 5.83-2.1l3.564 3.563a.857.857 0 1 0 1.212-1.212l-3.563-3.564A9.143 9.143 0 0 0 11.143 2Zm5.27 14.378a7.429 7.429 0 1 0-10.54-10.47 7.429 7.429 0 0 0 10.54 10.47Z" clip-rule="evenodd"/>
</svg>
