<svg xmlns="http://www.w3.org/2000/svg" width="24" height="24" fill="currentColor" viewBox="0 0 24 24">
  <path fill-rule="evenodd" d="M2 12C2 6.477 6.477 2 12 2s10 4.477 10 10-4.477 10-10 10S2 17.523 2 12Z" clip-rule="evenodd" opacity=".2"/>
  <path fill-rule="evenodd" d="M9.341 6.839a1.795 1.795 0 0 1 1.828.059l5.64 3.588a1.795 1.795 0 0 1 0 3.03l-5.64 3.587a1.795 1.795 0 0 1-2.759-1.515v-1.73l-1.313-1.314a.77.77 0 0 1 0-1.088l1.313-1.313V8.412c0-.655.357-1.258.931-1.573Zm1.002 1.357a.257.257 0 0 0-.394.216v2.05a.77.77 0 0 1-.226.543L8.73 12l.994.995a.77.77 0 0 1 .226.544v2.05a.256.256 0 0 0 .394.216l5.64-3.588a.256.256 0 0 0 0-.433l-5.64-3.588Z" clip-rule="evenodd"/>
  <path fill-rule="evenodd" d="M2 12C2 6.477 6.477 2 12 2s10 4.477 10 10-4.477 10-10 10S2 17.523 2 12Zm10-8.462a8.462 8.462 0 1 0 0 16.924 8.462 8.462 0 0 0 0-16.924Z" clip-rule="evenodd"/>
</svg>
