<svg xmlns="http://www.w3.org/2000/svg" width="24" height="24" fill="currentColor" viewBox="0 0 24 24">
  <path d="M11.764 5.624c.006-1.576 1.838-2.47 3.055-1.419l6.53 5.646c.848.732.871 2.055.046 2.815l-6.53 6.03c-1.201 1.108-3.095.228-3.101-1.378v-2.601c-3.695.172-6.762 1.627-8.292 5.075A.768.768 0 0 1 2 19.477V18.23c0-3.29 1.182-5.975 3.12-7.835 1.755-1.687 4.095-2.661 6.644-2.824V5.624Z" opacity=".2"/>
  <path fill-rule="evenodd" d="M11.764 5.624c.006-1.576 1.838-2.47 3.055-1.419l6.53 5.646c.848.732.871 2.055.046 2.815l-6.53 6.03c-1.201 1.108-3.095.228-3.101-1.378v-2.602c-3.695.173-6.762 1.628-8.292 5.076A.768.768 0 0 1 2 19.477V18.23c0-3.29 1.182-5.975 3.12-7.835 1.755-1.687 4.095-2.661 6.644-2.824V5.624Zm1.539.008c0-.3.323-.419.513-.254l6.532 5.648a.34.34 0 0 1 .007.501l-6.53 6.03a.313.313 0 0 1-.522-.247v-3.384a.772.772 0 0 0-.772-.774c-3.428 0-6.683.957-8.884 3.494.305-2.152 1.23-3.879 2.535-5.132 1.617-1.553 3.862-2.42 6.351-2.42a.773.773 0 0 0 .77-.773V5.632Z" clip-rule="evenodd"/>
</svg>
