<svg xmlns="http://www.w3.org/2000/svg" width="24" height="24" fill="currentColor" viewBox="0 0 24 24">
  <path d="M19.423 7.473a3.078 3.078 0 0 1 1.674 5.215l-2.215 2.21.54 3.56a3.078 3.078 0 0 1-4.39 3.23L12 20.21l-3.032 1.476a3.078 3.078 0 0 1-4.39-3.228l.54-3.56-2.214-2.211a3.078 3.078 0 0 1 1.673-5.215l2.913-.48 1.794-3.365a3.077 3.077 0 0 1 5.432 0l1.794 3.365 2.913.48Z" opacity=".2"/>
  <path fill-rule="evenodd" d="M19.423 7.473a3.078 3.078 0 0 1 1.674 5.215l-2.215 2.21.54 3.56a3.078 3.078 0 0 1-4.39 3.23L12 20.21l-3.032 1.476a3.078 3.078 0 0 1-4.39-3.228l.54-3.56-2.214-2.211a3.078 3.078 0 0 1 1.673-5.215l2.913-.48 1.794-3.365a3.077 3.077 0 0 1 5.432 0l1.794 3.365 2.913.48Zm-8.781-3.122L8.669 8.052a.77.77 0 0 1-.554.397l-3.288.542A1.539 1.539 0 0 0 3.99 11.6l2.49 2.485a.77.77 0 0 1 .218.66L6.1 18.69a1.539 1.539 0 0 0 2.195 1.615l3.368-1.64a.769.769 0 0 1 .674 0l3.368 1.64a1.54 1.54 0 0 0 2.196-1.614l-.599-3.946a.77.77 0 0 1 .217-.66l2.49-2.485a1.539 1.539 0 0 0-.836-2.608l-3.288-.542a.77.77 0 0 1-.554-.397l-1.973-3.7a1.539 1.539 0 0 0-2.716 0Z" clip-rule="evenodd"/>
</svg>
