<svg xmlns="http://www.w3.org/2000/svg" width="24" height="24" fill="currentColor" viewBox="0 0 24 24">
  <path fill-rule="evenodd" d="M15.807 8.193a5.385 5.385 0 1 0-7.615 7.615 5.385 5.385 0 0 0 7.615-7.615Z" clip-rule="evenodd" opacity=".2"/>
  <path d="M12 2a.77.77 0 0 1 .77.77v1.845a.77.77 0 1 1-1.54 0V2.77A.77.77 0 0 1 12 2Z"/>
  <path fill-rule="evenodd" d="M15.807 8.193a5.385 5.385 0 1 0-7.615 7.614 5.385 5.385 0 0 0 7.615-7.614ZM14.72 9.28a3.846 3.846 0 1 0-5.44 5.44 3.846 3.846 0 0 0 5.44-5.44Z" clip-rule="evenodd"/>
  <path d="M12.77 19.385a.77.77 0 0 0-1.54 0v1.846a.77.77 0 1 0 1.54 0v-1.846Zm6.3-14.455c.3.3.3.787 0 1.088l-.655.655a.77.77 0 0 1-1.088-1.088l.655-.655c.3-.3.788-.3 1.088 0ZM6.673 18.415a.77.77 0 0 0-1.088-1.088l-.655.655a.77.77 0 0 0 1.088 1.088l.655-.655ZM18.615 12a.77.77 0 0 1 .77-.77h1.846a.77.77 0 0 1 0 1.54h-1.846a.77.77 0 0 1-.77-.77ZM2.77 11.23a.77.77 0 1 0 0 1.54h1.845a.77.77 0 1 0 0-1.54H2.77Zm14.557 6.097c.3-.3.787-.3 1.088 0l.655.655a.77.77 0 0 1-1.088 1.088l-.655-.655a.77.77 0 0 1 0-1.088ZM6.018 4.93A.77.77 0 0 0 4.93 6.018l.655.655a.77.77 0 1 0 1.088-1.088l-.655-.655Z"/>
</svg>
