<svg xmlns="http://www.w3.org/2000/svg" width="24" height="24" fill="currentColor" viewBox="0 0 24 24">
  <path d="M14.632 8.734h3.884c1.073 0 2.086.496 2.746 1.346.66.85.894 1.957.634 3.002l-1.42 5.708a3.565 3.565 0 0 1-3.456 2.71H4.166A2.17 2.17 0 0 1 2 19.325v-8.416a2.17 2.17 0 0 1 2.166-2.175h2.938L8.74 3.873a2.017 2.017 0 0 1 1.016-1.165 2.002 2.002 0 0 1 1.54-.1l.718.248a3.888 3.888 0 0 1 2.618 3.68v2.198Z" opacity=".2"/>
  <path fill-rule="evenodd" d="M14.632 8.734h3.884c1.073 0 2.086.496 2.746 1.346.66.85.894 1.957.634 3.002l-1.42 5.708a3.565 3.565 0 0 1-3.456 2.71H4.166A2.17 2.17 0 0 1 2 19.325v-8.416a2.17 2.17 0 0 1 2.166-2.175h2.938L8.74 3.873a2.017 2.017 0 0 1 1.016-1.165 2.002 2.002 0 0 1 1.54-.1v.001l.718.247a3.888 3.888 0 0 1 2.618 3.68v2.198ZM10.797 4.07a.47.47 0 0 0-.6.297L8.426 9.63v10.325h8.594c.928 0 1.738-.635 1.963-1.54l1.42-5.707a1.962 1.962 0 0 0-.354-1.677 1.943 1.943 0 0 0-1.533-.752h-4.653a.77.77 0 0 1-.77-.773v-2.97a2.343 2.343 0 0 0-1.577-2.218l-.719-.247Zm-3.91 6.208H4.166a.629.629 0 0 0-.628.63v8.416c0 .348.281.63.628.63h2.721v-9.676Z" clip-rule="evenodd"/>
</svg>
