<svg xmlns="http://www.w3.org/2000/svg" width="24" height="24" fill="currentColor" viewBox="0 0 24 24">
  <path fill-rule="evenodd" d="M8.308 5.7A6.304 6.304 0 0 0 2 12c0 3.48 2.824 6.3 6.308 6.3h7.384A6.304 6.304 0 0 0 22 12c0-3.48-2.824-6.3-6.308-6.3H8.308Z" clip-rule="evenodd" opacity=".2"/>
  <path fill-rule="evenodd" d="M15.692 8.466A3.536 3.536 0 0 1 19.231 12a3.536 3.536 0 0 1-3.539 3.534A3.536 3.536 0 0 1 12.154 12a3.536 3.536 0 0 1 3.538-3.534Zm2 3.534a1.999 1.999 0 0 0-2-1.998 1.999 1.999 0 1 0 2 1.998Z" clip-rule="evenodd"/>
  <path fill-rule="evenodd" d="M15.692 5.7A6.304 6.304 0 0 1 22 12c0 3.48-2.824 6.3-6.308 6.3H8.308A6.304 6.304 0 0 1 2 12c0-3.48 2.824-6.3 6.308-6.3h7.384Zm4.77 6.3a4.766 4.766 0 0 0-4.77-4.763H8.308A4.766 4.766 0 0 0 3.538 12a4.766 4.766 0 0 0 4.77 4.763h7.384A4.766 4.766 0 0 0 20.462 12Z" clip-rule="evenodd"/>
</svg>
