<svg xmlns="http://www.w3.org/2000/svg" width="24" height="24" fill="currentColor" viewBox="0 0 24 24">
  <g opacity=".2">
    <path fill-rule="evenodd" d="M2.533 15.743a1.822 1.822 0 0 0 0 2.575l3.149 3.15c.71.71 1.863.71 2.574 0L21.467 8.257c.71-.711.71-1.864 0-2.575l-3.149-3.15a1.822 1.822 0 0 0-2.574 0L2.533 15.744Z" clip-rule="evenodd"/>
    <path d="m9.465 4.275-1.2-1.2a3.67 3.67 0 1 0-5.19 5.19l1.745 1.746 5.191-5.19-.542-.543-.004-.003Z"/>
  </g>
  <path fill-rule="evenodd" d="M2.533 15.743a1.822 1.822 0 0 0 0 2.575l3.149 3.15c.71.71 1.863.71 2.574 0L21.467 8.257c.71-.711.71-1.864 0-2.575l-3.149-3.15a1.822 1.822 0 0 0-2.574 0L2.533 15.744ZM17.23 3.621a.283.283 0 0 0-.4 0l-1.71 1.71.624.624a.77.77 0 0 1-1.087 1.087l-.624-.624-1.814 1.814 1.137 1.136a.77.77 0 0 1-1.088 1.088L11.133 9.32l-1.814 1.813.624.625a.77.77 0 1 1-1.087 1.087l-.624-.624-1.814 1.813 1.137 1.137a.77.77 0 1 1-1.088 1.088l-1.136-1.137-1.71 1.71c-.11.11-.11.29 0 .4l3.148 3.148c.11.11.29.11.4 0l13.21-13.21a.284.284 0 0 0 0-.4l-3.148-3.148Zm.38 9.886c.3-.3.788-.3 1.088 0l1.753 1.753c.393.394.662.895.77 1.441l.754 3.765a1.282 1.282 0 0 1-1.509 1.509l-3.765-.753a2.821 2.821 0 0 1-1.44-.771l-1.754-1.753a.77.77 0 1 1 1.088-1.088l1.753 1.753c.179.179.407.3.655.35l3.388.678-.678-3.388a1.282 1.282 0 0 0-.35-.655l-1.753-1.753a.77.77 0 0 1 0-1.088ZM8.265 3.075a3.67 3.67 0 1 0-5.19 5.19l2.227 2.228A.77.77 0 0 0 6.39 9.405l-.482-.482 3.015-3.015.482.482a.77.77 0 0 0 1.088-1.088L8.265 3.075Zm-2.595.463a2.132 2.132 0 0 0-1.507 3.64l.657.657L7.835 4.82l-.657-.657c-.4-.4-.942-.625-1.508-.625Z" clip-rule="evenodd"/>
</svg>
