<svg xmlns="http://www.w3.org/2000/svg" width="24" height="24" fill="currentColor" viewBox="0 0 24 24">
  <path fill-rule="evenodd" d="M16.82 2.574a1.96 1.96 0 0 0-2.773 0l-2.983 2.983-4.82 1.636A3.152 3.152 0 0 0 4.157 9.6L2.014 21.08a.772.772 0 0 0 .907.906L14.4 19.842a3.15 3.15 0 0 0 2.406-2.085l1.636-4.821 2.983-2.983a1.96 1.96 0 0 0 0-2.773L16.82 2.574Z" clip-rule="evenodd" opacity=".2"/>
  <path fill-rule="evenodd" d="M16.82 2.574a1.96 1.96 0 0 0-2.773 0l-2.983 2.983-4.82 1.636A3.152 3.152 0 0 0 4.157 9.6L2.014 21.08a.772.772 0 0 0 .907.906L14.4 19.842a3.15 3.15 0 0 0 2.406-2.085l1.636-4.821 2.983-2.983a1.96 1.96 0 0 0 0-2.773L16.82 2.574ZM8.825 16.263l-3.756 3.756 9.05-1.69a1.612 1.612 0 0 0 1.23-1.067l1.54-4.536-5.615-5.616-4.536 1.54c-.552.188-.96.659-1.067 1.231l-1.69 9.05 3.756-3.756a2.888 2.888 0 1 1 1.088 1.088Zm2.377-1.559a1.348 1.348 0 1 0-1.907-1.906 1.348 1.348 0 0 0 .007 1.9 1.348 1.348 0 0 0 1.9.006Zm3.933-11.042a.422.422 0 0 1 .597 0l4.606 4.606a.422.422 0 0 1 0 .597l-2.567 2.567-5.203-5.203 2.567-2.567Z" clip-rule="evenodd"/>
</svg>
