<svg xmlns="http://www.w3.org/2000/svg" width="24" height="24" fill="currentColor" viewBox="0 0 24 24">
  <path d="M15.744 2.533a1.822 1.822 0 0 1 2.574 0l3.15 3.149c.71.71.71 1.863 0 2.574l-4.01 4.01 1.878 1.88a4.872 4.872 0 0 1 1.177 1.904l1.42 4.262a1.282 1.282 0 0 1-1.621 1.621l-4.262-1.42a4.872 4.872 0 0 1-1.905-1.177l-1.878-1.879-4.01 4.01c-.711.71-1.864.71-2.575 0l-3.15-3.149a1.822 1.822 0 0 1 0-2.574l.005-.005 4.04-3.972-3.75-3.75a2.82 2.82 0 0 1 0-3.99l1.2-1.201a2.82 2.82 0 0 1 3.99 0l3.716 3.717 4.01-4.01Z" opacity=".2"/>
  <path fill-rule="evenodd" d="M15.744 2.533a1.822 1.822 0 0 1 2.574 0l3.15 3.149c.71.71.71 1.863 0 2.574l-4.01 4.01 1.878 1.88a4.872 4.872 0 0 1 1.177 1.904l1.42 4.262a1.282 1.282 0 0 1-1.621 1.621l-4.262-1.42a4.872 4.872 0 0 1-1.905-1.177l-1.878-1.879-4.01 4.01c-.711.71-1.864.71-2.575 0l-3.15-3.149a1.822 1.822 0 0 1 0-2.574l.005-.005 4.04-3.972-3.75-3.75a2.82 2.82 0 0 1 0-3.99l1.2-1.201a2.82 2.82 0 0 1 3.99 0l3.716 3.717 4.01-4.01Zm-4.555 5.642L8.586 5.57 5.571 8.586l2.64 2.64.002.002 7.02 7.02c.047.047.096.093.145.137l3.007-3.007a3.337 3.337 0 0 0-.137-.145l-7.059-7.058Zm5.18 3.004L12.821 7.63l4.01-4.01c.11-.11.29-.11.4 0l3.148 3.148c.11.11.11.29 0 .4l-4.01 4.01Zm2.771 5.62-2.342 2.341 3.514 1.172-1.172-3.514Zm-7.961-.43-3.515-3.514-4.044 3.977a.283.283 0 0 0 .001.399l3.148 3.148c.11.11.29.11.4 0l4.01-4.01ZM4.484 7.5l3.014-3.015-.57-.57a1.282 1.282 0 0 0-1.812 0L3.914 5.116a1.282 1.282 0 0 0 0 1.813l.57.57Z" clip-rule="evenodd"/>
</svg>
