<svg xmlns="http://www.w3.org/2000/svg" width="24" height="24" fill="currentColor" viewBox="0 0 24 24">
  <path d="M19.071 19.071c3.905-3.905 3.905-10.237 0-14.142-3.905-3.905-10.237-3.905-14.142 0-3.905 3.905-3.905 10.237 0 14.142 3.905 3.905 10.237 3.905 14.142 0Z" opacity=".2"/>
  <path fill-rule="evenodd" d="M14.584 7.686a3.654 3.654 0 1 0-5.168 5.168 3.654 3.654 0 0 0 5.168-5.168Zm-1.088 1.088a2.116 2.116 0 1 0-2.992 2.992 2.116 2.116 0 0 0 2.992-2.992Z" clip-rule="evenodd"/>
  <path fill-rule="evenodd" d="M19.071 4.929c3.905 3.905 3.905 10.237 0 14.142-3.905 3.905-10.237 3.905-14.142 0-3.905-3.905-3.905-10.237 0-14.142 3.905-3.905 10.237-3.905 14.142 0Zm-1.088 1.088A8.462 8.462 0 1 0 6.124 18.089 8.8 8.8 0 0 1 12 15.846c2.258 0 4.315.851 5.876 2.242l.107-.105a8.462 8.462 0 0 0 0-11.966Zm-1.327 13.05A7.26 7.26 0 0 0 12 17.386c-1.77 0-3.39.632-4.655 1.683a8.472 8.472 0 0 0 9.31 0Z" clip-rule="evenodd"/>
</svg>
